<svg width="72" height="84" viewBox="0 0 72 84" fill="none" xmlns="http://www.w3.org/2000/svg">
<rect width="72" height="84" fill="#DDDDDD"/>
<path d="M71.5 42C71.5 64.9949 55.5366 83.5 36 83.5C16.4634 83.5 0.5 64.9949 0.5 42C0.5 19.0051 16.4634 0.5 36 0.5C55.5366 0.5 71.5 19.0051 71.5 42Z" stroke="black"/>
<path d="M35.2929 55.7071C35.6834 56.0976 36.3166 56.0976 36.7071 55.7071L43.0711 49.3431C43.4616 48.9526 43.4616 48.3195 43.0711 47.9289C42.6805 47.5384 42.0474 47.5384 41.6569 47.9289L36 53.5858L30.3431 47.9289C29.9526 47.5384 29.3195 47.5384 28.9289 47.9289C28.5384 48.3195 28.5384 48.9526 28.9289 49.3431L35.2929 55.7071ZM35 15V55H37V15H35Z" fill="black"/>
</svg>
