<svg width="400" height="385" viewBox="0 0 400 385" fill="none" xmlns="http://www.w3.org/2000/svg">
<path d="M56.3043 174.783C74.0326 190.983 89.3418 209.537 106.261 226.565C122.543 242.952 134.415 253.758 151.391 269.478C164.634 281.741 182.123 294.511 193 309.326C198.878 317.332 172.96 307.641 163.652 304.174C131.37 292.15 100.309 276.808 75.087 252.913C53.3047 232.277 30.2883 207.684 13.913 182.348C2.002 163.919 -2.02114 136.583 6.47826 115.957C18.4622 86.8735 58.0215 68.9466 88 70.6957C129.967 73.1442 159.084 107.607 149.043 148.957C143.835 170.407 130.293 186.866 119.37 205.37C112.796 216.504 146.945 231.953 153.087 235.696C155.755 237.322 175.771 249.296 180.348 250.696C195.056 255.192 195.536 236.43 195.674 227.348C195.869 214.485 194.383 204.929 190.457 192.848C189.304 189.302 187.606 185.952 185.957 182.609C185.027 180.725 181.039 176.535 183.087 177C191.346 178.877 201.223 191.197 206.826 196.696C210.447 200.25 213.62 204.258 217.391 207.652C219.924 209.931 217.389 200.742 216.413 197.478C216.201 196.771 212.976 186.845 212.761 184.696C212.429 181.381 219.486 185.232 222.609 186.391C223.842 186.849 236.009 191.416 237.609 191.739C246.289 193.495 242.65 183.341 241.326 178.957C237.343 165.767 230.441 153.937 220.783 144.13C218.446 141.758 210.408 139.396 213.217 137.609C223.638 130.977 246.67 133.099 257.565 134.478C265.479 135.48 279.783 138.047 285.348 145.826C292.858 156.326 281.754 168.944 275.63 176.152C262.135 192.038 277.99 175.004 280.065 171.522C296.593 143.792 277.067 111.659 263.043 87.1304C258.508 79.1979 252.407 70.0203 246.739 62.6087C244.146 59.2177 236.376 53.1055 234.935 48.7826C234.219 46.6362 239.516 48.5216 241.717 49.0435C262.965 54.0799 283.18 63.8192 302.435 73.8261C321.811 83.896 346.157 98.0889 364.522 110.217C370.046 113.866 388.165 126.451 394.261 133.435C396.968 136.537 398.74 141.858 397.13 145.957C389.999 164.109 368.065 183.012 355.391 195.783C311.66 239.848 264.491 281.208 214.261 317.739C192.15 333.82 167.089 347.282 148.196 367.37C143.808 372.035 140.541 377.432 136.326 382.174C134.858 383.825 135.386 382.658 136.261 380.609C146.627 356.313 165.952 331.997 180.609 311.217C217.756 258.553 235.668 235.765 272.435 181.043C304.123 133.881 332.181 84.9508 361.848 36.587C368.867 25.1439 376.543 11.848 386.174 2.21741" stroke="black" stroke-width="3" stroke-linecap="round"/>
</svg>
